<?xml version="1.0" standalone="no"?>
<!DOCTYPE svg PUBLIC "-//W3C//DTD SVG 20010904//EN"
 "http://www.w3.org/TR/2001/REC-SVG-20010904/DTD/svg10.dtd">
<svg version="1.0" xmlns="http://www.w3.org/2000/svg"
 width="306.000000pt" height="306.000000pt" viewBox="0 0 306.000000 306.000000"
 preserveAspectRatio="xMidYMid meet">
<metadata>
Created by potrace 1.11, written by Peter Selinger 2001-2013
</metadata>
<g transform="translate(0.000000,306.000000) scale(0.100000,-0.100000)"
fill="#000000" stroke="none">
<path d="M2301 3040 c-12 -11 -28 -17 -34 -13 -6 3 -7 1 -3 -5 4 -7 1 -12 -8
-12 -9 0 -16 -5 -16 -12 0 -6 -3 -8 -7 -5 -3 4 -13 -2 -20 -13 -8 -11 -19 -18
-24 -15 -5 4 -14 -6 -19 -20 -6 -16 -14 -23 -22 -19 -6 4 -8 3 -5 -3 4 -6 0
-13 -8 -17 -8 -3 -12 -12 -9 -21 4 -8 1 -15 -7 -15 -7 0 -9 -3 -6 -7 4 -3 -1
-12 -11 -20 -10 -9 -11 -11 -2 -7 13 7 13 5 2 -8 -7 -9 -12 -22 -11 -30 3 -28
-1 -39 -13 -32 -9 5 -8 2 1 -9 12 -15 12 -20 -5 -33 -10 -9 -13 -13 -6 -9 6 3
12 1 12 -5 0 -6 6 -8 13 -5 6 4 4 0 -5 -8 -21 -17 -24 -31 -5 -24 10 4 12 -3
9 -25 -3 -17 0 -33 6 -37 5 -3 12 -15 14 -26 1 -11 10 -27 19 -35 9 -8 14 -21
12 -27 -3 -7 2 -13 11 -13 9 0 16 -5 16 -11 0 -5 4 -7 10 -4 6 3 7 -1 4 -9 -6
-14 5 -21 28 -17 4 0 4 -7 1 -16 -4 -11 -3 -14 5 -9 7 4 12 2 12 -4 0 -6 4 -9
9 -6 5 3 20 -3 34 -14 14 -11 32 -17 41 -14 11 4 16 0 16 -12 0 -16 2 -17 10
-4 7 11 10 11 10 2 0 -7 5 -10 10 -7 6 3 10 0 10 -7 0 -8 3 -9 8 -3 9 12 52
15 52 3 0 -5 10 -4 21 3 13 6 19 7 15 1 -8 -13 12 -10 42 6 21 12 27 9 22 -13
-1 -5 2 -6 7 -2 4 5 8 14 8 20 0 7 8 11 18 9 9 -2 17 2 17 8 0 6 5 8 10 5 6
-3 10 -1 10 6 0 6 8 9 20 6 10 -3 19 -2 18 2 -2 18 3 31 13 31 5 0 7 -6 4 -12
-4 -7 1 -4 10 7 9 11 20 19 25 18 4 -1 11 4 14 13 4 10 2 13 -6 8 -7 -4 -8 -3
-4 4 4 7 14 12 22 12 8 0 12 5 9 10 -3 6 -1 10 5 10 10 0 35 48 32 63 -1 4 4
7 10 7 9 0 8 4 -2 10 -10 6 -11 10 -2 10 6 0 11 3 11 8 -3 18 2 33 9 28 8 -5
6 68 -2 91 -3 8 -1 11 4 8 6 -3 10 -1 10 4 0 6 -4 11 -10 11 -5 0 -6 7 -3 17
4 10 2 14 -4 10 -6 -4 -10 6 -11 23 0 16 -8 39 -16 53 -9 13 -13 28 -9 33 5 5
4 6 0 2 -9 -7 -48 22 -43 31 2 3 -8 17 -22 31 -14 14 -21 18 -16 10 5 -9 0 -6
-11 7 -12 13 -31 23 -43 23 -12 0 -22 5 -22 11 0 5 5 7 12 3 6 -4 8 -3 5 2 -3
6 -21 9 -41 9 -22 -1 -37 4 -40 12 -5 11 -27 14 -96 12 -49 -1 -87 -5 -85 -9
3 -4 -2 -11 -11 -14 -24 -9 -28 -7 -14 9 17 20 10 18 -19 -5z"/>
<path d="M1119 2732 c-15 -10 -24 -23 -21 -32 5 -13 3 -13 -11 -1 -15 12 -17
11 -17 -3 0 -22 -24 -46 -45 -46 -11 0 -15 -5 -11 -15 3 -9 0 -15 -10 -15 -9
0 -12 -5 -8 -12 5 -8 2 -9 -9 -5 -11 4 -17 1 -17 -8 0 -8 -5 -15 -11 -15 -5 0
-7 -5 -3 -12 5 -7 0 -9 -14 -6 -16 4 -19 2 -15 -10 5 -11 2 -14 -10 -9 -12 4
-14 2 -10 -10 4 -9 2 -14 -3 -11 -11 5 -55 -38 -46 -46 3 -3 -2 -6 -10 -6 -8
0 -23 -11 -34 -24 -10 -14 -22 -22 -28 -19 -5 4 -7 -1 -3 -11 4 -10 3 -15 -3
-11 -6 3 -13 -1 -16 -9 -3 -9 -10 -13 -15 -10 -5 3 -9 1 -9 -3 0 -5 -7 -18
-16 -29 -8 -10 -12 -13 -8 -5 5 9 3 12 -4 7 -7 -4 -12 -14 -12 -22 0 -8 -5
-12 -11 -9 -6 4 -13 -2 -16 -14 -3 -12 -10 -21 -16 -21 -6 0 -7 -3 -4 -7 4 -3
-1 -12 -11 -20 -9 -8 -11 -11 -3 -7 10 5 12 3 5 -7 -12 -19 -15 -89 -3 -89 5
0 9 -7 9 -16 0 -8 4 -12 10 -9 6 3 7 -1 4 -9 -3 -9 -1 -16 6 -16 6 0 8 -4 5
-10 -5 -9 -1 -11 20 -10 3 1 13 -6 21 -15 9 -8 20 -13 25 -10 5 4 9 1 9 -6 0
-8 4 -8 15 1 12 10 15 10 15 -1 0 -10 3 -10 11 -2 6 6 17 9 25 6 17 -6 85 27
78 38 -3 5 4 9 16 9 12 0 18 5 15 10 -3 6 1 10 9 10 9 0 16 7 16 16 0 8 3 13
8 11 9 -5 42 29 35 36 -2 3 5 8 16 12 12 3 19 11 16 16 -4 5 -1 10 4 10 6 1
16 2 21 3 6 0 10 6 11 11 1 17 41 55 52 48 6 -4 8 0 4 11 -4 10 -3 15 3 11 6
-3 10 -1 10 5 0 6 5 8 10 5 6 -3 10 -1 10 4 0 6 7 11 15 11 8 0 15 9 15 21 0
11 5 17 10 14 6 -3 10 -1 10 5 0 6 5 8 11 4 7 -4 10 -1 7 7 -3 8 5 19 16 24
16 9 24 7 34 -4 8 -9 11 -10 7 -4 -4 9 -1 11 9 7 9 -3 13 -11 9 -18 -3 -6 -3
-8 2 -4 4 4 15 2 23 -5 13 -10 15 -9 8 3 -4 8 -1 7 8 -4 9 -11 21 -16 32 -12
13 5 14 4 6 -7 -9 -11 -5 -13 22 -12 24 0 33 -4 32 -15 -1 -10 6 -14 22 -12
14 2 22 -2 22 -12 0 -10 7 -13 21 -11 18 4 20 0 17 -20 -3 -13 -2 -22 2 -20 4
2 7 -2 7 -10 0 -8 -3 -14 -6 -13 -21 2 -29 -5 -26 -21 3 -14 -1 -18 -11 -14
-8 3 -14 2 -13 -3 4 -25 -3 -44 -16 -44 -8 0 -15 -7 -15 -15 0 -8 -5 -15 -11
-15 -6 0 -8 -7 -5 -16 4 -10 2 -13 -6 -8 -7 5 -9 2 -5 -9 4 -12 2 -14 -10 -10
-9 4 -14 2 -10 -3 3 -6 -5 -23 -19 -39 -22 -26 -28 -39 -25 -57 0 -4 -7 -4
-16 -1 -13 5 -15 2 -11 -15 4 -12 2 -20 -3 -16 -5 3 -13 -6 -19 -20 -5 -14
-14 -26 -20 -26 -5 0 -9 -6 -7 -12 1 -7 -5 -12 -13 -10 -8 2 -12 1 -8 -3 3 -3
0 -18 -7 -32 -8 -15 -11 -31 -8 -36 3 -6 1 -7 -5 -3 -7 4 -12 1 -12 -9 0 -9
-3 -14 -7 -12 -8 5 -12 -20 -13 -70 0 -12 -4 -24 -8 -27 -5 -3 -7 -21 -6 -41
2 -21 -1 -33 -7 -30 -5 4 0 -10 11 -30 11 -20 16 -34 10 -30 -5 3 -10 1 -10
-4 0 -6 4 -11 9 -11 4 0 7 -11 6 -25 -2 -14 1 -23 6 -19 5 3 9 -4 9 -15 0 -12
5 -21 11 -21 8 0 7 -5 -1 -16 -8 -8 -9 -14 -4 -13 5 1 16 1 24 0 12 -1 12 -3
2 -10 -10 -6 -9 -11 4 -22 15 -12 17 -12 9 0 -5 10 -4 12 4 7 6 -4 9 -12 6
-17 -4 -5 5 -20 18 -33 14 -14 22 -27 19 -30 -3 -3 2 -6 12 -6 9 0 14 -4 11
-10 -3 -5 -1 -10 5 -10 6 0 9 -4 6 -9 -3 -5 3 -11 14 -14 11 -3 24 -17 30 -31
5 -14 14 -26 20 -26 6 0 8 -4 5 -10 -3 -6 2 -10 12 -10 15 0 16 -2 3 -10 -13
-8 -12 -10 3 -10 10 0 15 -4 12 -10 -3 -5 1 -10 10 -10 11 0 15 -5 11 -16 -3
-8 -2 -12 4 -9 6 3 10 -1 10 -10 0 -9 3 -14 8 -12 7 5 33 -17 32 -28 -1 -20 1
-25 8 -23 4 2 7 0 7 -4 0 -3 13 -18 28 -32 17 -16 25 -31 21 -39 -4 -6 -4 -9
1 -5 9 8 35 -15 35 -31 0 -6 6 -11 14 -11 15 0 30 -27 27 -49 -1 -7 2 -10 7
-7 5 3 18 -2 28 -10 10 -9 14 -13 8 -10 -7 3 -15 -1 -18 -10 -4 -10 -2 -13 7
-8 8 5 7 2 -2 -9 -7 -9 -10 -17 -5 -17 5 0 1 -5 -8 -11 -10 -5 -18 -19 -18
-29 0 -10 -5 -22 -12 -26 -7 -5 -8 -3 -3 6 5 9 4 11 -4 6 -9 -6 -9 -11 0 -22
10 -13 6 -18 -13 -15 -3 0 -5 -7 -3 -17 3 -23 -14 -54 -25 -47 -6 4 -7 -1 -3
-11 5 -12 3 -15 -6 -9 -10 6 -11 3 -2 -14 7 -12 8 -21 4 -20 -27 5 -35 -1 -23
-16 9 -10 9 -15 1 -15 -6 0 -11 -7 -11 -16 0 -9 -5 -12 -12 -8 -7 4 -10 4 -6
0 9 -11 -12 -67 -23 -60 -6 3 -8 -6 -5 -20 3 -16 0 -25 -7 -23 -6 1 -11 -7
-12 -18 0 -11 -6 -19 -13 -17 -8 1 -11 -2 -7 -8 3 -5 0 -10 -7 -10 -10 0 -9
-3 2 -10 12 -8 12 -10 -3 -16 -9 -3 -17 -10 -17 -16 0 -5 6 -6 13 -3 6 4 3 -1
-7 -9 -11 -9 -16 -16 -11 -16 5 0 0 -7 -11 -16 -10 -8 -12 -12 -4 -8 13 7 13
5 2 -9 -8 -9 -11 -21 -7 -27 4 -6 1 -9 -7 -8 -7 2 -12 -3 -10 -9 1 -7 -2 -13
-7 -13 -5 0 -7 -10 -3 -22 4 -16 2 -19 -9 -13 -12 7 -12 6 -1 -7 9 -12 10 -18
2 -23 -8 -5 -8 -11 -1 -19 6 -7 8 -16 4 -19 -3 -4 0 -14 8 -24 12 -15 12 -16
-1 -9 -8 4 -6 0 5 -9 17 -14 18 -17 5 -26 -12 -8 -11 -9 5 -7 12 2 19 -2 17
-9 -1 -7 4 -13 12 -13 7 0 16 -8 18 -18 4 -14 14 -18 41 -18 19 1 33 -2 30 -7
-8 -13 98 -6 128 9 15 7 28 12 30 11 2 -1 3 0 1 2 -1 3 9 12 24 21 14 10 26
21 26 26 0 5 4 8 10 6 5 -1 7 2 3 8 -3 5 -2 10 3 10 6 0 8 10 4 22 -4 17 -2
20 12 15 11 -4 15 -3 11 4 -4 6 1 20 12 32 15 19 16 20 1 8 -26 -19 -22 -6 5
19 12 12 23 29 23 38 3 31 16 62 25 56 5 -3 9 7 9 21 0 19 4 26 14 22 10 -4
12 0 9 14 -3 11 2 28 12 39 10 11 15 26 12 34 -4 9 -1 18 5 22 7 5 8 2 3 -7
-6 -10 -5 -11 4 -3 6 6 13 21 16 33 2 13 10 29 16 37 7 8 9 17 6 20 -3 4 3 15
13 27 11 11 17 24 14 29 -3 4 2 11 10 14 9 3 13 10 10 15 -3 6 0 17 8 26 7 9
12 18 11 20 -2 1 -3 6 -3 11 0 4 5 0 10 -8 8 -11 9 -9 5 11 -4 17 -1 30 9 38
9 7 14 17 11 21 -3 4 2 11 11 14 14 5 14 9 3 24 -7 9 -9 14 -5 10 8 -7 40 46
59 97 6 15 5 16 -8 5 -9 -8 -15 -8 -15 -2 0 6 5 14 10 17 6 3 10 11 10 16 0 6
-6 7 -12 3 -9 -5 -9 -2 1 9 11 13 11 17 1 17 -8 0 -11 3 -7 6 10 10 -14 64
-26 57 -6 -4 -8 0 -4 10 3 10 3 17 -2 17 -5 0 -14 14 -21 30 -7 17 -17 30 -22
30 -5 0 -7 4 -3 9 3 6 -3 14 -12 20 -10 6 -13 11 -8 11 6 0 3 5 -5 10 -11 7
-11 10 -2 10 7 0 10 5 7 10 -4 6 -11 8 -16 5 -5 -4 -9 6 -9 20 0 14 -4 24 -8
21 -4 -2 -14 4 -21 16 -7 11 -8 17 -2 13 20 -11 12 6 -11 27 -13 11 -16 17 -8
13 10 -4 9 -2 -2 8 -10 8 -15 17 -11 20 3 4 1 7 -6 7 -7 0 -9 4 -6 10 3 5 1
10 -4 10 -6 0 -10 6 -8 13 1 6 -3 11 -9 10 -7 -1 -10 6 -7 20 4 17 2 19 -5 8
-8 -11 -11 -8 -14 15 -2 16 -8 28 -15 27 -8 -2 -10 4 -6 14 5 12 3 14 -7 8 -9
-5 -11 -4 -6 3 4 6 2 21 -5 33 -6 12 -7 19 -1 15 6 -3 15 8 21 25 6 17 14 28
19 25 5 -3 8 6 6 19 -1 14 1 23 5 21 4 -3 15 8 25 25 9 16 14 29 9 29 -4 0 0
5 10 11 9 5 17 17 17 24 0 8 5 15 11 15 5 0 7 5 4 10 -3 6 -1 10 4 10 6 0 11
9 11 21 0 14 5 19 14 16 10 -4 13 0 11 14 -2 11 2 22 10 26 8 3 12 9 9 14 -3
5 0 9 6 9 6 0 9 4 6 9 -3 5 1 12 10 15 13 5 14 9 3 22 -7 8 -8 14 -3 13 5 -1
11 0 14 1 26 10 36 5 38 -19 1 -14 7 -27 12 -29 6 -2 10 -8 10 -14 0 -6 8 -17
18 -25 9 -8 11 -11 3 -7 -20 10 -3 -17 21 -34 13 -10 16 -17 9 -26 -7 -9 -5
-16 9 -26 14 -10 16 -16 7 -22 -9 -6 -9 -8 1 -8 6 0 12 -7 12 -16 0 -8 4 -13
9 -10 5 3 12 -1 15 -10 4 -10 2 -13 -7 -8 -6 3 2 -5 18 -20 17 -14 38 -25 48
-26 9 0 17 -5 17 -11 0 -7 12 -10 30 -7 17 3 30 1 30 -4 0 -5 5 -6 11 -2 6 3
15 0 20 -7 6 -10 9 -11 9 -1 0 6 5 12 11 12 5 0 8 -4 5 -8 -2 -4 4 -8 14 -8
10 0 17 3 15 6 -2 4 2 7 10 7 8 0 12 -4 9 -9 -5 -7 39 -12 109 -11 15 1 27 -3
27 -7 0 -4 7 -11 16 -14 8 -3 13 -2 10 3 -3 5 1 12 10 15 24 9 28 7 16 -7 -8
-10 -6 -13 9 -14 11 -1 17 3 13 9 -4 6 2 6 15 -1 12 -7 26 -9 31 -6 6 3 10 2
10 -2 0 -5 9 -9 20 -9 11 0 20 5 20 11 0 5 5 3 10 -5 5 -8 10 -11 10 -6 0 5 7
3 15 -4 8 -7 15 -9 15 -5 0 4 8 1 18 -6 14 -11 15 -11 5 1 -7 8 -13 19 -13 25
0 6 3 7 8 0 12 -17 47 -41 38 -27 -6 10 -1 11 20 6 35 -9 44 -9 68 2 15 6 18
4 12 -7 -4 -8 0 -5 8 5 9 11 16 16 16 10 0 -5 6 -2 13 7 7 8 20 18 29 22 22 8
44 47 26 47 -7 0 -5 5 5 13 17 12 18 32 3 56 -6 9 -5 12 2 7 7 -4 10 1 7 13
-6 33 -25 62 -37 55 -6 -4 -8 1 -3 15 5 16 3 20 -9 15 -9 -3 -16 -1 -16 6 0 6
-4 8 -10 5 -5 -3 -10 2 -10 12 0 14 -2 15 -9 4 -6 -9 -11 -10 -15 -3 -4 6 -14
8 -23 5 -12 -5 -14 -3 -8 8 7 11 5 11 -10 -1 -11 -9 -16 -10 -11 -2 4 6 3 12
-1 12 -5 0 -15 -6 -22 -12 -9 -8 -11 -8 -8 -2 9 16 -8 20 -75 19 -34 0 -54 3
-51 9 4 5 -1 7 -10 3 -10 -4 -17 -1 -17 6 0 7 -5 4 -11 -5 -5 -10 -15 -18 -22
-18 -9 0 -8 3 1 9 10 6 9 11 -4 22 -12 9 -15 10 -10 1 8 -13 -19 -13 -41 1 -7
5 -13 4 -13 -1 0 -5 -7 -9 -15 -9 -8 0 -15 4 -15 8 0 5 -7 5 -17 2 -12 -5 -14
-3 -9 8 4 8 0 5 -8 -5 -14 -17 -16 -18 -16 -3 0 9 -5 17 -11 17 -5 0 -8 -4 -5
-8 3 -5 -1 -9 -9 -9 -8 0 -11 5 -8 10 4 6 -4 7 -21 3 -16 -4 -26 -2 -26 4 0 6
-4 8 -10 5 -5 -3 -10 1 -10 10 0 9 -4 13 -10 10 -5 -3 -7 0 -4 8 3 8 1 18 -5
21 -6 4 -8 13 -5 20 3 8 0 17 -7 22 -8 5 -10 3 -4 -6 5 -8 4 -11 -3 -7 -5 4
-9 19 -7 33 1 14 -3 28 -10 31 -7 2 -12 15 -10 29 1 14 0 23 -2 20 -3 -3 -11
1 -18 7 -10 9 -10 15 -1 26 8 12 8 13 -1 7 -9 -5 -13 0 -13 13 0 12 -4 21 -9
21 -5 0 -12 7 -15 16 -3 8 -2 12 4 9 6 -3 10 -1 10 4 0 6 -7 11 -15 11 -8 0
-15 9 -15 20 0 11 -6 20 -12 20 -9 0 -8 4 2 10 13 8 12 10 -2 10 -10 0 -18 4
-18 8 0 16 -99 112 -114 112 -9 0 -16 6 -16 14 0 10 -7 13 -20 11 -11 -2 -19
-1 -16 3 2 4 -2 13 -10 20 -11 10 -14 10 -14 0 0 -6 -6 -4 -13 7 -9 12 -19 15
-28 10 -8 -5 -11 -5 -7 -1 8 10 -14 36 -24 29 -5 -2 -8 1 -8 7 0 7 -7 9 -16 6
-8 -3 -12 -2 -9 3 3 5 1 12 -5 16 -5 3 -10 1 -10 -5 0 -6 -5 -8 -11 -5 -6 4
-8 13 -6 19 4 9 -2 11 -16 9 -13 -3 -31 4 -43 16 -12 11 -24 17 -28 14 -3 -3
-8 1 -12 10 -3 9 -14 14 -25 12 -12 -2 -19 2 -19 11 0 8 -4 12 -10 9 -5 -3
-10 -1 -10 5 0 6 -5 8 -11 5 -6 -4 -17 1 -25 11 -9 11 -13 13 -9 7 9 -19 -6
-16 -22 5 -9 10 -11 11 -7 2 5 -10 1 -9 -14 3 -11 11 -26 16 -31 12 -6 -3 -15
4 -20 17 -6 13 -10 18 -10 11 -1 -9 -8 -10 -23 -4 -13 5 -22 15 -20 22 2 10 0
10 -12 -1 -13 -10 -16 -10 -16 0 0 7 -8 10 -20 7 -14 -3 -20 0 -20 10 0 10 -6
14 -20 10 -11 -3 -20 -1 -20 4 0 4 -7 6 -15 3 -8 -4 -17 1 -21 9 -3 9 -15 14
-31 12 -13 -1 -27 3 -29 10 -3 7 -14 11 -25 8 -10 -3 -19 0 -19 6 0 6 -8 11
-18 11 -10 0 -23 5 -30 12 -9 9 -12 9 -12 -1 0 -7 -5 -9 -12 -4 -21 13 -91 13
-107 0 -12 -9 -13 -9 -7 1 9 15 7 15 -25 -6z m51 -372 c0 -5 -5 -10 -11 -10
-5 0 -7 5 -4 10 3 6 8 10 11 10 2 0 4 -4 4 -10z m27 -745 c0 -8 -4 -12 -9 -9
-5 3 -6 10 -3 15 9 13 12 11 12 -6z"/>
<path d="M968 1502 c-10 -2 -18 -9 -18 -15 -1 -16 -36 -57 -49 -57 -6 0 -7 -7
-4 -17 5 -12 3 -14 -7 -8 -10 6 -12 4 -7 -8 3 -9 -1 -21 -11 -29 -16 -12 -16
-11 -2 7 14 19 14 19 -2 6 -10 -7 -18 -20 -18 -28 0 -8 -4 -12 -9 -9 -5 3 -12
-6 -15 -19 -4 -16 -11 -23 -18 -19 -8 5 -9 1 -5 -10 6 -14 3 -17 -9 -12 -14 6
-15 4 -4 -9 11 -13 11 -16 -1 -13 -8 2 -13 -2 -12 -9 2 -7 -4 -10 -13 -6 -11
4 -15 0 -12 -13 2 -11 -2 -18 -9 -17 -7 2 -13 -1 -13 -6 0 -4 -11 -6 -25 -3
-14 2 -23 8 -20 11 2 4 -2 8 -10 8 -8 0 -12 -4 -9 -9 3 -4 1 -8 -5 -8 -5 0
-11 4 -13 9 -2 5 -22 11 -45 13 -23 3 -49 10 -57 17 -14 11 -16 11 -16 -5 -1
-18 -1 -18 -11 -1 -6 9 -14 15 -20 12 -5 -4 -9 -1 -9 5 0 7 -6 8 -19 0 -13 -7
-22 -7 -26 0 -3 5 -15 15 -27 21 -15 8 -19 8 -14 0 4 -6 3 -11 -3 -11 -5 0
-13 5 -16 10 -4 6 -11 8 -16 4 -5 -3 -17 0 -26 8 -14 11 -16 11 -8 -2 7 -12 5
-12 -11 1 -25 22 -219 26 -211 5 4 -9 -2 -13 -16 -12 -14 1 -21 -4 -19 -13 2
-8 -3 -11 -12 -8 -9 4 -16 -2 -19 -15 -4 -13 -10 -17 -18 -12 -9 5 -11 1 -6
-15 3 -14 0 -24 -9 -28 -20 -7 -17 -120 3 -128 8 -3 13 -12 9 -20 -5 -14 5
-20 27 -16 4 1 3 -8 -4 -20 -6 -12 -7 -19 -1 -15 15 9 43 -4 35 -17 -4 -6 0
-8 10 -4 10 3 17 2 17 -2 0 -5 7 -12 16 -15 8 -3 12 -2 9 4 -3 6 -1 10 4 10 6
0 11 -6 11 -13 0 -9 12 -13 35 -12 26 2 35 -2 35 -14 0 -13 2 -13 9 -2 6 9 11
10 15 2 4 -6 12 -11 17 -11 6 0 7 5 3 12 -5 7 -3 8 7 2 8 -5 17 -9 22 -10 4
-1 9 -3 12 -4 3 -1 13 -3 23 -4 9 -1 24 -6 32 -11 8 -6 34 -10 57 -11 24 0 46
-4 50 -9 5 -4 2 -5 -6 0 -10 5 -12 4 -7 -3 5 -9 13 -9 27 -2 13 7 19 7 19 0 0
-5 8 -10 18 -10 10 0 24 -6 31 -12 10 -11 11 -9 6 7 -7 20 -6 20 9 1 12 -15
16 -16 16 -5 0 12 2 12 10 -1 5 -8 10 -11 10 -6 0 6 5 5 11 -1 6 -6 18 -9 27
-6 11 5 13 3 7 -8 -7 -11 -6 -12 6 -3 19 14 38 12 49 -6 9 -13 10 -13 10 0 1
11 4 10 15 -4 9 -12 15 -15 15 -7 0 11 3 11 17 0 15 -12 16 -12 8 1 -7 13 -6
13 7 2 13 -10 17 -10 21 0 3 8 6 5 6 -6 1 -19 1 -19 14 -1 10 13 16 15 21 6 6
-9 11 -9 22 0 7 6 21 9 29 5 10 -3 13 -2 10 5 -4 6 2 13 13 16 11 3 23 12 26
20 3 8 11 11 16 8 6 -4 9 -1 8 6 -2 7 2 13 7 14 18 1 67 54 60 64 -3 7 0 8 9
5 11 -4 16 0 16 11 0 9 5 13 10 10 6 -3 10 0 10 7 0 16 36 49 44 41 3 -4 6 -1
6 6 0 7 5 9 10 6 6 -3 10 1 10 10 0 9 5 13 10 10 6 -3 10 1 10 9 0 9 7 16 16
16 9 0 14 6 12 12 -3 7 2 19 9 27 11 10 12 16 3 21 -9 6 -9 9 1 13 11 4 11 6
1 6 -7 1 -10 6 -7 11 3 6 0 10 -8 10 -8 0 -20 13 -27 29 -6 16 -18 32 -27 35
-8 3 -11 11 -7 18 4 7 4 10 -1 6 -10 -9 -35 16 -35 36 0 9 -6 16 -14 16 -9 0
-13 9 -12 25 2 13 -1 22 -5 19 -5 -3 -9 0 -9 5 0 20 -3 26 -18 37 -8 6 -13 18
-10 26 8 20 -33 65 -54 60z"/>
<path d="M1356 1267 c3 -10 9 -15 12 -12 3 3 0 11 -7 18 -10 9 -11 8 -5 -6z"/>
<path d="M2370 665 c5 -7 -2 -11 -21 -11 -17 -1 -36 -10 -43 -19 -10 -14 -15
-15 -21 -5 -6 9 -4 11 5 5 9 -5 11 -4 6 4 -4 6 -12 9 -17 5 -5 -3 -7 -10 -3
-15 3 -5 -8 -14 -25 -20 -17 -6 -31 -17 -31 -25 0 -8 -4 -14 -10 -14 -5 0 -10
-6 -10 -14 0 -8 -9 -18 -20 -21 -11 -3 -20 -13 -20 -21 0 -8 -5 -14 -11 -14
-5 0 -7 -5 -3 -12 4 -6 -1 -17 -11 -25 -11 -7 -13 -13 -7 -13 7 0 12 -5 12
-11 0 -5 -4 -8 -9 -5 -5 3 -11 -1 -15 -9 -3 -8 0 -15 7 -15 8 0 9 -3 1 -8 -13
-8 -13 -121 0 -141 7 -10 5 -12 -5 -6 -11 6 -12 5 -1 -6 6 -7 12 -21 12 -32 0
-10 5 -15 11 -12 6 4 10 1 8 -6 -3 -27 1 -40 11 -34 6 3 10 -1 10 -10 0 -9 19
-35 42 -58 23 -23 38 -35 34 -27 -4 9 -1 8 7 -2 8 -10 20 -18 26 -18 7 0 9 -5
5 -12 -5 -7 -3 -8 6 -3 7 4 16 2 21 -6 4 -8 19 -14 31 -14 13 -1 28 -4 33 -7
16 -10 175 -6 175 5 0 4 10 8 23 7 38 -4 48 0 41 12 -5 8 -2 9 9 5 10 -3 17
-2 17 4 0 6 5 7 10 4 6 -3 13 1 16 9 3 9 12 16 20 16 7 0 18 9 24 20 6 11 18
20 27 20 13 0 13 3 3 15 -11 13 -10 14 4 9 11 -4 16 -2 14 7 -2 8 3 13 11 11
9 -2 11 3 7 13 -3 9 1 18 9 21 8 4 15 10 15 16 0 5 -5 6 -11 3 -6 -4 -5 2 2
13 7 12 16 19 19 17 3 -2 6 5 6 15 0 11 -5 16 -11 12 -6 -4 -3 0 7 10 12 11
14 18 6 20 -7 3 -8 9 -3 18 11 18 13 80 2 73 -4 -2 -6 7 -3 22 4 20 2 24 -7
16 -9 -7 -13 -5 -13 9 0 10 5 16 11 12 5 -3 4 2 -3 11 -8 9 -11 21 -7 27 4 6
1 9 -6 8 -7 -2 -14 3 -15 10 -1 6 -2 16 -3 21 0 5 -10 13 -21 16 -11 3 -20 11
-20 16 0 6 5 7 10 4 6 -3 10 -2 10 3 0 5 -14 12 -30 16 -17 3 -29 11 -28 18 2
7 -3 12 -9 11 -7 -2 -13 4 -13 12 0 8 -3 14 -7 14 -20 -3 -43 2 -42 9 3 18 -2
26 -9 14 -7 -10 -14 -9 -33 5 -26 20 -46 22 -68 9 -9 -6 -12 -5 -8 1 5 7 -19
10 -67 9 -49 -1 -71 -4 -66 -11z m195 -5 c3 -5 1 -10 -4 -10 -6 0 -11 5 -11
10 0 6 2 10 4 10 3 0 8 -4 11 -10z"/>
</g>
</svg>
