<?xml version="1.0" standalone="no"?>
<!DOCTYPE svg PUBLIC "-//W3C//DTD SVG 20010904//EN"
 "http://www.w3.org/TR/2001/REC-SVG-20010904/DTD/svg10.dtd">
<svg version="1.0" xmlns="http://www.w3.org/2000/svg"
 width="512.000000pt" height="512.000000pt" viewBox="0 0 512.000000 512.000000"
 preserveAspectRatio="xMidYMid meet">
<metadata>
Created by potrace 1.11, written by Peter Selinger 2001-2013
</metadata>
<g transform="translate(0.000000,512.000000) scale(0.100000,-0.100000)"
fill="#000000" stroke="none">
<path d="M2362 4509 c-505 -49 -1006 -319 -1324 -714 -424 -529 -548 -1206
-337 -1849 200 -611 714 -1101 1334 -1271 182 -50 331 -69 540 -69 244 0 450
37 662 118 481 184 851 519 1079 979 269 544 266 1185 -9 1732 -103 207 -227
375 -393 535 -414 399 -977 595 -1552 539z m-89 -404 l237 -138 0 -333 0 -333
-273 -155 c-151 -86 -281 -158 -289 -161 -9 -4 -131 61 -299 158 l-284 163 -2
280 -3 279 68 56 c88 74 211 156 312 209 80 41 279 121 290 116 3 -1 112 -65
243 -141z m905 111 c173 -66 335 -158 482 -271 109 -85 101 -53 98 -365 l-3
-273 -284 -163 c-156 -90 -287 -164 -290 -164 -3 0 -133 73 -288 162 l-283
162 0 336 1 335 237 137 c130 75 238 137 240 137 1 1 42 -14 90 -33z m-1576
-1159 l283 -163 0 -334 0 -334 -284 -163 -284 -164 -241 138 -240 138 -12 48
c-43 168 -43 506 0 674 l12 48 239 137 c132 76 241 138 242 138 1 0 129 -73
285 -163z m2443 25 l240 -139 12 -54 c7 -30 18 -114 25 -187 12 -141 2 -337
-25 -466 l-13 -60 -241 -138 -241 -139 -284 163 -283 163 0 335 0 335 280 162
c154 89 282 162 285 162 3 0 113 -62 245 -137z m-1816 -1104 l281 -161 -2
-336 -3 -336 -238 -136 -238 -137 -60 20 c-158 53 -404 194 -548 313 l-61 50
0 277 0 278 27 17 c65 43 539 313 550 313 6 0 138 -73 292 -162z m1246 -1
l280 -162 3 -277 2 -276 -57 -52 c-128 -114 -344 -241 -530 -309 l-82 -30
-241 140 -240 141 0 336 1 337 277 157 c152 86 284 157 292 157 8 0 141 -73
295 -162z"/>
</g>
</svg>
